<svg width="89" height="89" viewBox="0 0 89 89" fill="none" xmlns="http://www.w3.org/2000/svg">
<path d="M55.625 27.8125C55.625 27.0749 55.918 26.3674 56.4396 25.8459C56.9612 25.3243 57.6686 25.0312 58.4062 25.0312H80.6562C81.3939 25.0312 82.1013 25.3243 82.6229 25.8459C83.1445 26.3674 83.4375 27.0749 83.4375 27.8125C83.4375 28.5501 83.1445 29.2576 82.6229 29.7791C82.1013 30.3007 81.3939 30.5938 80.6562 30.5938H58.4062C57.6686 30.5938 56.9612 30.3007 56.4396 29.7791C55.918 29.2576 55.625 28.5501 55.625 27.8125ZM86.2188 52.8438C86.2188 53.5814 85.9257 54.2888 85.4041 54.8104C84.8826 55.332 84.1751 55.625 83.4375 55.625H58.7539C59.3761 58.011 60.7711 60.1238 62.7208 61.6333C64.6706 63.1428 67.0654 63.964 69.5312 63.9688C70.9927 63.9759 72.4408 63.6904 73.7902 63.1291C75.1396 62.5679 76.363 61.7422 77.3883 60.7008C77.9097 60.1807 78.6161 59.8886 79.3525 59.8886C80.089 59.8886 80.7954 60.1807 81.3168 60.7008C81.5785 60.9566 81.7865 61.2621 81.9285 61.5994C82.0705 61.9368 82.1437 62.2991 82.1437 62.665C82.1437 63.031 82.0705 63.3933 81.9285 63.7306C81.7865 64.068 81.5785 64.3735 81.3168 64.6293C79.777 66.1891 77.9416 67.426 75.9179 68.2677C73.8942 69.1094 71.723 69.539 69.5312 69.5312C66.2308 69.5312 63.0044 68.5525 60.2602 66.7189C57.5159 64.8853 55.377 62.279 54.114 59.2298C52.851 56.1805 52.5205 52.8252 53.1644 49.5882C53.8083 46.3511 55.3976 43.3777 57.7314 41.0439C60.0652 38.7101 63.0386 37.1208 66.2757 36.4769C69.5127 35.833 72.868 36.1635 75.9173 37.4265C78.9665 38.6895 81.5728 40.8284 83.4064 43.5727C85.24 46.3169 86.2187 49.5433 86.2188 52.8438V52.8438ZM80.3086 50.0625C79.6959 47.6695 78.3041 45.5484 76.3528 44.0338C74.4014 42.5191 72.0015 41.6969 69.5312 41.6969C67.061 41.6969 64.6611 42.5191 62.7097 44.0338C60.7584 45.5484 59.3666 47.6695 58.7539 50.0625H80.3086ZM48.6719 54.9297C48.6719 58.8023 47.1335 62.5162 44.3952 65.2546C41.6569 67.9929 37.9429 69.5312 34.0703 69.5312H11.125C10.3874 69.5312 9.67994 69.2382 9.15836 68.7166C8.63677 68.1951 8.34375 67.4876 8.34375 66.75V22.25C8.34375 21.5124 8.63677 20.8049 9.15836 20.2834C9.67994 19.7618 10.3874 19.4687 11.125 19.4688H29.8984C32.4458 19.4723 34.9378 20.2123 37.0743 21.5995C39.2108 22.9868 40.9007 24.9622 41.9404 27.2877C42.9801 29.6132 43.3253 32.1898 42.9344 34.707C42.5435 37.2242 41.4331 39.5747 39.7371 41.4754C42.3848 42.5903 44.6447 44.4615 46.234 46.8548C47.8233 49.248 48.6713 52.0568 48.6719 54.9297V54.9297ZM13.9062 40.3281H29.8984C31.9269 40.3281 33.8723 39.5223 35.3067 38.088C36.7411 36.6536 37.5469 34.7082 37.5469 32.6797C37.5469 30.6512 36.7411 28.7058 35.3067 27.2714C33.8723 25.8371 31.9269 25.0313 29.8984 25.0312H13.9062V40.3281ZM43.1094 54.9297C43.1002 52.5352 42.1449 50.2414 40.4518 48.5482C38.7586 46.855 36.4648 45.8998 34.0703 45.8906H13.9062V63.9688H34.0703C36.4648 63.9596 38.7586 63.0043 40.4518 61.3112C42.1449 59.618 43.1002 57.3242 43.1094 54.9297Z" fill="white"/>
</svg>
